<?xml version="1.0" encoding="utf-8"?>
<!-- Generator: Adobe Illustrator 26.0.1, SVG Export Plug-In . SVG Version: 6.00 Build 0)  -->
<svg version="1.1" id="Calque_1" xmlns="http://www.w3.org/2000/svg" xmlns:xlink="http://www.w3.org/1999/xlink" x="0px" y="0px"
	 viewBox="0 0 450.6 450.7" style="enable-background:new 0 0 450.6 450.7;" xml:space="preserve">
<style type="text/css">
	.st0{fill:#FFFFFF;}
</style>
<circle cx="225.2" cy="225.4" r="225.4"/>
<path class="st0" d="M246.9,320.8c0,0,12.5,11.6,13.8,18.6c-2.3-20.1,17.6-51.8,31.5-72.7h-79.9c6.6,5.5,6.3,15.8,6.3,28L217.8,400
	l-20.3-133.3h-33.9c6.8,1.6,18.9,5.3,25.3,29.5c15,56.6,18.1,67.5,29,121.8c0,0,2.4-112,2.4-126.6c0-40.9,49.1-20,60.2-9.2
	c0,0-11.3,25-14.2,25c-5,0-11.2-7.3-14.8-11.1c-1.2,9.5-2,15-4.4,23.9c0,0-16-18-20.6-29c2.4,10.5,10.9,94.7,9.3,126.8
	C238.4,368.8,239.5,337.2,246.9,320.8z"/>
<path class="st0" d="M105.7,147.7c7.7,10.3,1.7,38.9-3.9,58.8c-51.8-30-39.1-56.7-18.6,22.3c-22.8,4.6-37,2-28-16.3l-23.9,44.1
	c0.1,0,0.1,0.1,0.2,0.1c6.7-10.8,19-26.5,28.6-17.2l24.5-5.7c13.3-2.7,29.5-7.8,45.8-13.7v0l51.6-19.2c-16.2,5.7-36.8,12.5-54.6,18
	c-9.1-3.7-15.5-6.7-22.5-10.7l-9.3,18.6c0,0,3.1-8.6,6.4-20.3c0,0,0,0-0.1,0c0.9-1.5,26.2-69.4,26.2-69.4s-9.3,23.8-16.6,15.9
	c-5.4-5.9-27.6-34.7-38.6-49.1c9.7-6,69-40.2,101-8.2l16.6,16.6l-73.9,73.9h76.3c-58.3-2.7-23.5-50-2.2-73.7l23.9,23.9
	c-4-4.2-15.2-16.5-18.9-29.4c0,0,0,0,0,0c-3.8-13.4,0.5-27.2,29.6-32.8c29.1,5.5,33.4,19.4,29.6,32.8c0,0,0,0,0,0
	c-3.7,12.8-14.9,25.2-18.9,29.4l23.9-23.9c21.3,23.7,56.1,71-2.2,73.7h76.3L260,112.3l16.6-16.6c32-32,91.2,2.2,101,8.2
	c-11.1,14.5-33.2,43.2-38.6,49.1c-7.3,7.9-16.6-15.9-16.6-15.9s26,69.6,26.2,69.5c-5.6-19.8-11.7-48.5-3.9-58.8
	c39.2-52.2,85,73.8,85,73.8l-45.8-126c0,0-2.5,3.3-6.3,8.3l-112.3-74c67.4,45.6-2.9,46-37.4,44c-0.9-0.1-1.8-0.1-2.7-0.2
	c-0.9,0.1-1.8,0.1-2.7,0.2c-34.5,2-104.8,1.6-37.4-44l-112.3,74c-3.8-5-6.3-8.3-6.3-8.3l-45.8,126C20.7,221.6,66.5,95.5,105.7,147.7
	z"/>
<path class="st0" d="M124.3,239.3l8.1,9.1h-15.9l56,56c-8.7-9-26.5-29.4-25.1-42.9l-13.1-13.1h0.2
	C131.1,245.5,127.7,242.5,124.3,239.3z"/>
<path class="st0" d="M169.7,248.4h-35.2c4.9,4.3,9.4,7.6,13.6,10C150.2,252.9,156.5,249.1,169.7,248.4z"/>
<path class="st0" d="M320.9,248.4h0.2L308,261.5c1.4,13.6-16.5,33.9-25.1,42.9l56-56H323l8.1-9.1
	C327.7,242.5,324.3,245.5,320.9,248.4z"/>
<path class="st0" d="M307.3,258.4c4.2-2.4,8.7-5.6,13.6-10h-35.2C298.9,249.1,305.2,252.9,307.3,258.4z"/>
<path class="st0" d="M216,137.9l-1.5-1.5C215.5,137.4,216,137.9,216,137.9z"/>
<path class="st0" d="M32.5,261.8c0,0-0.1,0.1-0.1,0.1l160.9,156.1c-210.1-204.5-40.2-187.5-5.7-182.3c-21.4-3.7-39.4-8.8-54.4-14.5
	l-46.9,21.1C102.3,318.5,52.7,280,32.5,261.8z"/>
<path class="st0" d="M187.6,235.8c1.9,0.3,3.8,0.7,5.8,1C193.4,236.7,191.3,236.3,187.6,235.8z"/>
<path class="st0" d="M235.8,136.5l-1.5,1.5C234.4,137.9,234.9,137.4,235.8,136.5z"/>
<path class="st0" d="M262.7,235.8c-3.7,0.5-5.8,1-5.8,1C258.9,236.4,260.8,236.1,262.7,235.8z"/>
<path class="st0" d="M345.7,208.2c-7,4-13.4,7.1-22.5,10.7c-17.9-5.5-38.5-12.3-54.6-18l51.6,19.2c0,0,0,0,0,0
	c16.3,5.9,32.5,11,45.8,13.7l24.5,5.7c9.6-9.3,21.9,6.5,28.6,17.2c0.1,0,0.1-0.1,0.2-0.1l-23.9-44.1c8.9,18.2-5.2,20.9-28,16.3
	c20.6-79,33.2-52.2-18.7-22.3c3.3,11.7,6.4,20.3,6.4,20.3L345.7,208.2z"/>
<path class="st0" d="M417.9,261.8c-20.2,18.2-69.8,56.6-53.9-19.4l-46.9-21.1c-15,5.7-33,10.8-54.4,14.5
	c34.5-5.2,204.5-22.2-5.7,182.3L418,262C417.9,261.9,417.9,261.9,417.9,261.8z"/>
<path class="st0" d="M226.5,244.2c0-60,20.4-70.1,34.1-77.8c-11.9,5.6-22.9,8.5-34.1,8.3c-11.2,0.2-22.2-2.7-34.1-8.3
	C206.1,174.1,226.5,184.2,226.5,244.2z"/>
<path class="st0" d="M225.2,433.4c-111.1,0-203.1-88-216.8-195.5c1.6,24.3,7.1,47.9,16.6,70.3c10.9,25.9,26.6,49.1,46.6,69
	c20,20,43.2,35.6,69,46.6c26.8,11.3,55.2,17.1,84.6,17.1s57.8-5.7,84.6-17.1c25.9-10.9,49.1-26.6,69-46.6c20-20,35.6-43.2,46.6-69
	c9.5-22.4,15.1-46,16.6-70.3C428.3,345.3,336.3,433.4,225.2,433.4z"/>
<path class="st0" d="M225.2,13.5c74.3,0,141.4,38.2,179.3,99.9c-4.4-7.9-9.2-15.6-14.6-22.9c-12.4-16.9-27.3-31.7-44.2-44.1
	C310.5,20.6,268.9,7,225.2,7s-85.3,13.6-120.5,39.3C87.8,58.7,72.9,73.5,60.5,90.4c-5.4,7.3-10.3,15-14.6,22.9
	C83.8,51.7,150.9,13.5,225.2,13.5z"/>
</svg>
